<svg xmlns="http://www.w3.org/2000/svg" viewBox="0 0 27.21 27.21"><defs><style>.cls-1{fill:#7ac843;}</style></defs><title>success</title><g id="Layer_2" data-name="Layer 2"><g id="Vrstva_4" data-name="Vrstva 4"><path class="cls-1" d="M13.61,0a13.61,13.61,0,1,0,13.6,13.61A13.61,13.61,0,0,0,13.61,0Zm0,24.58a11,11,0,1,1,11-11A11,11,0,0,1,13.61,24.58Zm2.3-5.71a2.31,2.31,0,1,1-2.3-2.3A2.3,2.3,0,0,1,15.91,18.87ZM11.45,7.28l.37,7.46a.66.66,0,0,0,.66.62h2.26a.64.64,0,0,0,.65-.62l.38-7.46a.66.66,0,0,0-.66-.7h-3A.66.66,0,0,0,11.45,7.28Z"/></g></g></svg>