<svg xmlns="http://www.w3.org/2000/svg" viewBox="0 0 27.21 27.21"><defs><style>.cls-1{fill:#ff921e;}</style></defs><title>waiting</title><g id="Layer_2" data-name="Layer 2"><g id="Vrstva_4" data-name="Vrstva 4"><path class="cls-1" d="M16,13l-4-1.2a1.29,1.29,0,0,1-.84-1.25,1.21,1.21,0,0,1,1.13-1.28h2.47a2.22,2.22,0,0,1,1.09.29A.9.9,0,0,0,17,9.43l.66-.62a.9.9,0,0,0-.13-1.39,4.85,4.85,0,0,0-2.55-.82V5.71a.87.87,0,0,0-.87-.88h-.88a.88.88,0,0,0-.88.88v.87A3.85,3.85,0,0,0,8.56,10.5a3.93,3.93,0,0,0,2.7,3.77l4,1.2A1.27,1.27,0,0,1,16,16.71,1.21,1.21,0,0,1,14.92,18H12.45a2.21,2.21,0,0,1-1.09-.3.9.9,0,0,0-1.08.09l-.66.62a.88.88,0,0,0,.12,1.38,4.86,4.86,0,0,0,2.55.83v.89a.89.89,0,0,0,.88.88h.88a.88.88,0,0,0,.87-.88v-.88a3.85,3.85,0,0,0,3.75-3.92A3.92,3.92,0,0,0,16,13ZM13.61,0a13.61,13.61,0,1,0,13.6,13.61A13.61,13.61,0,0,0,13.61,0Zm0,24.58a11,11,0,1,1,11-11A11,11,0,0,1,13.61,24.58Z"/></g></g></svg>