<svg xmlns="http://www.w3.org/2000/svg" viewBox="0 0 26.79 26.79"><defs><style>.cls-1{fill:#b2b2b2;}</style></defs><title>canceled</title><g id="Layer_2" data-name="Layer 2"><g id="Vrstva_4" data-name="Vrstva 4"><path class="cls-1" d="M13.39,0a13.4,13.4,0,1,0,13.4,13.39A13.38,13.38,0,0,0,13.39,0Zm0,24.19a10.8,10.8,0,1,1,10.8-10.8A10.8,10.8,0,0,1,13.39,24.19ZM18.89,10l-3.36,3.36,3.36,3.36a.66.66,0,0,1,0,.92l-1.22,1.22a.66.66,0,0,1-.92,0l-3.36-3.36L10,18.89a.65.65,0,0,1-.91,0L7.9,17.67a.64.64,0,0,1,0-.92l3.35-3.36L7.9,10a.63.63,0,0,1,0-.91L9.12,7.9a.63.63,0,0,1,.91,0l3.36,3.35L16.75,7.9a.64.64,0,0,1,.92,0l1.22,1.22a.65.65,0,0,1,0,.91Z"/></g></g></svg>