<svg xmlns="http://www.w3.org/2000/svg" viewBox="0 0 27.21 27.21"><defs><style>.cls-1{fill:#b2b2b2;}</style></defs><title>done</title><g id="Layer_2" data-name="Layer 2"><g id="Vrstva_4" data-name="Vrstva 4"><path class="cls-1" d="M13.61,0a13.61,13.61,0,1,0,13.6,13.61A13.61,13.61,0,0,0,13.61,0Zm0,2.63a11,11,0,1,1-11,11,11,11,0,0,1,11-11M21.3,9.78,20.06,8.53a.66.66,0,0,0-.93,0l-7.75,7.69L8.1,12.92a.67.67,0,0,0-.94,0L5.92,14.15a.66.66,0,0,0,0,.93l5,5a.66.66,0,0,0,.93,0l9.47-9.4a.66.66,0,0,0,0-.93Z"/></g></g></svg>